<?xml version="1.0" standalone="no"?>
<!DOCTYPE svg PUBLIC "-//W3C//DTD SVG 20010904//EN"
 "http://www.w3.org/TR/2001/REC-SVG-20010904/DTD/svg10.dtd">
<svg version="1.0" xmlns="http://www.w3.org/2000/svg"
 width="480.000000pt" height="480.000000pt" viewBox="0 0 480.000000 480.000000"
 preserveAspectRatio="xMidYMid meet">

<g transform="translate(0.000000,480.000000) scale(0.100000,-0.100000)"
fill="#000000" stroke="none">
<path d="M2610 4188 c-41 -34 -102 -74 -135 -90 -67 -31 -67 -31 -80 45 -3 20
-11 37 -17 37 -6 0 -45 -20 -87 -44 -42 -24 -140 -72 -219 -106 -218 -95 -346
-188 -423 -305 l-43 -65 -19 53 c-11 28 -23 56 -28 61 -9 10 -55 -60 -128
-195 -79 -148 -94 -254 -71 -490 15 -145 77 -516 95 -571 11 -30 15 -73 13
-129 l-3 -84 -27 52 c-25 47 -60 83 -80 83 -17 0 -6 -19 36 -61 51 -52 71
-110 80 -236 8 -109 11 -113 55 -113 21 0 40 2 43 6 3 3 0 24 -7 48 -7 24 -16
65 -19 92 -4 27 -10 68 -15 91 -5 26 -5 40 1 37 6 -4 6 10 2 33 -4 21 -6 44
-5 51 3 11 3 38 2 182 0 36 2 79 5 95 39 230 69 376 86 421 24 63 94 146 135
162 16 6 100 20 189 32 134 19 172 20 230 11 119 -18 313 -24 392 -12 146 23
273 25 353 7 143 -34 196 -55 229 -92 67 -77 83 -128 139 -459 36 -206 29
-509 -14 -651 -15 -52 -10 -58 47 -52 l33 3 8 90 c12 133 38 212 87 259 38 36
50 56 32 56 -20 0 -55 -36 -80 -83 l-27 -52 -3 94 c-2 72 2 108 17 155 34 105
71 409 72 595 0 146 -15 209 -86 358 -55 116 -170 303 -186 303 -5 0 -9 -27
-9 -61 0 -33 -4 -59 -8 -57 -20 8 -93 99 -123 153 -46 83 -116 192 -127 199
-6 3 -19 -20 -29 -51 l-20 -58 -18 55 c-33 102 -76 210 -84 210 -5 0 -21 -19
-37 -42 l-29 -43 -3 60 c-2 33 -6 63 -10 67 -4 3 -41 -21 -82 -54z"/>
<path d="M1775 2764 c-43 -22 -65 -44 -65 -66 0 -23 25 -23 76 -2 44 19 137
15 283 -11 90 -16 121 -9 121 25 0 27 -24 37 -125 55 -116 20 -251 20 -290 -1z"/>
<path d="M2760 2764 c-92 -17 -110 -26 -110 -55 0 -28 29 -37 90 -28 30 5 103
14 161 21 94 10 111 10 151 -5 24 -9 51 -17 61 -17 30 0 19 38 -20 67 -34 26
-43 28 -142 30 -61 1 -142 -5 -191 -13z"/>
<path d="M1883 2566 c-62 -20 -109 -53 -133 -91 -27 -44 -43 -98 -28 -93 6 2
12 12 14 21 4 26 61 94 101 118 52 32 164 38 224 12 64 -29 104 -66 133 -125
30 -60 35 -44 7 19 -53 116 -196 179 -318 139z"/>
<path d="M2788 2564 c-78 -27 -169 -131 -168 -191 1 -10 12 6 26 34 94 195
372 191 457 -7 l15 -35 1 31 c1 17 -11 49 -28 76 -55 87 -195 129 -303 92z"/>
<path d="M1902 2511 c-91 -58 -95 -184 -9 -252 33 -25 101 -35 137 -20 l25 10
-27 0 c-38 1 -35 14 11 44 42 28 58 20 38 -18 -9 -17 -8 -18 5 -7 25 20 48 76
48 117 0 42 -18 81 -54 114 -37 35 -127 41 -174 12z m49 -47 c17 -21 0 -49
-32 -49 -27 0 -37 28 -19 50 16 19 34 19 51 -1z"/>
<path d="M2800 2523 c-23 -9 -60 -45 -76 -75 -30 -59 -8 -151 47 -191 32 -23
109 -34 135 -18 18 10 18 10 -3 11 -34 0 -28 22 13 48 29 19 38 21 45 11 4 -8
3 -20 -3 -29 -7 -8 1 -3 17 12 23 21 29 37 32 80 5 62 -17 106 -69 138 -32 19
-103 26 -138 13z m23 -64 c23 -37 -25 -68 -52 -35 -9 11 -10 20 -1 36 13 24
38 23 53 -1z"/>
<path d="M1175 1199 c-84 -44 -192 -172 -231 -274 -16 -42 -16 -46 5 -87 11
-24 73 -101 136 -171 l116 -127 1223 0 1222 0 90 93 c125 130 142 151 149 191
14 73 -94 247 -196 315 -34 23 -65 41 -70 41 -5 0 -9 -17 -9 -37 0 -60 -19
-413 -26 -473 -5 -48 -10 -58 -38 -76 l-32 -21 -1084 4 c-635 3 -1101 9 -1122
14 -21 6 -38 16 -38 24 0 7 -5 15 -12 17 -8 3 -15 56 -20 169 -4 90 -11 221
-16 292 l-7 127 -40 -21z"/>
</g>
</svg>
